<svg width="128" height="128" viewBox="0 0 128 128" fill="none" xmlns="http://www.w3.org/2000/svg">
    <path d="M82.4194 62.5285C79.0062 55.3549 71.7457 48.9018 64.0571 44.0001C56.3441 48.8634 49.0548 55.2802 45.6025 62.4366C43.4699 66.8613 43.2475 71.6708 46.227 75.9307C49.6526 80.8268 56.5772 83.9816 63.9573 84C71.3374 84.0184 78.2776 80.8982 81.7276 76.0193C84.7283 71.7743 84.5298 66.9663 82.4194 62.5285ZM75.82 73.677C74.6687 75.2805 72.9603 76.6213 70.8748 77.5581C68.7892 78.4949 66.4037 78.9931 63.9697 79C61.1091 78.9817 58.3293 78.2821 56.0333 77.0027C56.7236 77.0711 57.4218 77.107 58.1278 77.1104C61.17 77.1021 64.1516 76.4797 66.7582 75.3088C69.3648 74.1378 71.4998 72.4618 72.9381 70.4573C75.2884 67.1307 75.0932 63.6727 74.2081 60.9155C74.9648 62.0174 75.6036 63.1115 76.1243 64.1978C77.2975 66.6632 78.1971 70.3105 75.82 73.6745L75.82 73.677Z" fill="#248277" />
    <path d="M114.007 64.1249C113.978 75.6926 109.939 86.8924 102.578 95.8161C95.2174 104.74 84.9901 110.835 73.639 113.064C62.2879 115.292 50.5153 113.516 40.3271 108.037C30.1389 102.559 22.1654 93.7172 17.7653 83.0189C13.3652 72.3207 12.8107 60.4278 16.1963 49.3665C19.5818 38.3053 26.698 28.7601 36.3322 22.3574C45.9665 15.9547 57.5227 13.0907 69.0319 14.2532C80.5411 15.4158 91.2912 20.5331 99.4504 28.7331L95.0425 33.119C87.898 25.9387 78.4849 21.4579 68.407 20.4399C58.3291 19.4219 48.21 21.9298 39.7739 27.5362C31.3378 33.1427 25.1066 41.5007 22.1421 51.1864C19.1776 60.872 19.6632 71.2859 23.5161 80.6537C27.369 90.0215 34.3508 97.7635 43.272 102.561C52.1932 107.358 62.5017 108.913 72.4412 106.962C82.3806 105.011 91.336 99.6733 97.7813 91.8594C104.227 84.0455 107.763 74.2385 107.789 64.1093L114.007 64.1249Z" fill="#248277" />
    <path d="M47.8926 111.332C36.9421 107.604 27.623 100.194 21.5233 90.3653C15.4235 80.5365 12.9205 68.8967 14.4407 57.4292C15.9609 45.9618 21.4103 35.3762 29.8602 27.4762C38.3102 19.5761 49.238 14.8504 60.7817 14.1042C72.3254 13.358 83.7707 16.6375 93.1674 23.3839C102.564 30.1303 109.331 39.9262 112.315 51.1025C115.299 62.2787 114.315 74.1439 109.532 84.6763C104.748 95.2086 96.4607 103.757 86.0813 108.864L79.0656 94.605C86.1462 91.1211 91.7998 85.2899 95.0631 78.105C98.3263 70.92 98.9973 62.8258 96.9617 55.2016C94.9262 47.5773 90.31 40.8948 83.8997 36.2925C77.4894 31.6903 69.6817 29.4531 61.8068 29.9621C53.932 30.4712 46.4772 33.695 40.7128 39.0842C34.9484 44.4735 31.231 51.6947 30.1939 59.5176C29.1569 67.3404 30.8644 75.2809 35.0255 81.9859C39.1866 88.6909 45.5439 93.7457 53.0141 96.289L47.8926 111.332Z" fill="#248277" />
</svg>